<svg id="Layer_1" data-name="Layer 1" xmlns="http://www.w3.org/2000/svg" viewBox="0 0 225.42 225.42"><defs><style>.cls-1{fill:#010101;}.cls-2{fill:#f79421;}</style></defs><title>logo</title><rect class="cls-1" x="34.06" y="36.14" width="225.42" height="225.42" rx="37.3" ry="37.3" transform="translate(-36.14 259.49) rotate(-90)"/><path class="cls-2" d="M195.33,82.38H150.09a3.13,3.13,0,0,0-2,.69L94.8,125.91a3.13,3.13,0,0,0-1.17,2.44v35.73a3.13,3.13,0,0,0,5.08,2.45L197.28,88A3.13,3.13,0,0,0,195.33,82.38Z" transform="translate(-34.06 -36.14)"/><path class="cls-2" d="M149.74,215.32l48-.3a2.21,2.21,0,0,0,1.37-3.94l-70.51-56.6a2.21,2.21,0,0,0-3.6,1.73l.14,39a2.21,2.21,0,0,0,.83,1.72l22.41,17.9A2.21,2.21,0,0,0,149.74,215.32Z" transform="translate(-34.06 -36.14)"/></svg>